<svg xmlns="http://www.w3.org/2000/svg" viewBox="0 0 596.87 101.66"><defs><style>.cls-1{fill:#1d1d1b;}.cls-2{fill:#18a138;}.cls-3{fill:#9c2122;}</style></defs><title>CRISPR_project_final_logo_font_outline</title><g id="Layer_1" data-name="Layer 1"><path class="cls-1" d="M9.77,102.39l-8.55,0L1.09,25.74l8.56,0v6.9a21.19,21.19,0,0,1,16.86-8.11c15.46,0,24,12.79,24.06,26.11,0,13.55-8.64,25.8-23.61,25.83A20.94,20.94,0,0,1,9.72,68.16Zm32-51.76c0-12.12-8.23-18.53-16.2-18.51S9.19,38.68,9.21,50.57c0,10.1,6.45,18.29,16.55,18.27S41.8,60.5,41.78,50.63Z" transform="translate(-1.09 -0.74)"/><path class="cls-1" d="M63.61,25.63h8.56V31c.83-1.31,4.51-6.55,11.17-6.56a18.1,18.1,0,0,1,7.61,2l-4,7.73a8.76,8.76,0,0,0-5-1.65A8.24,8.24,0,0,0,75,35.6c-1.43,1.9-2.85,5.23-2.83,13.32l0,26H63.69Z" transform="translate(-1.09 -0.74)"/><path class="cls-1" d="M92.89,50.43c0-15,11-26,26.11-26.08s26.17,11,26.19,26-11.13,25.93-26.11,26S92.92,65.4,92.89,50.43Zm8.8,0c0,12.13,8.58,18.29,17.38,18.28s17.34-6.33,17.32-18.34S128,31.94,119,32,101.67,38.41,101.69,50.41Z" transform="translate(-1.09 -0.74)"/><path class="cls-1" d="M162.46.74a6.07,6.07,0,1,1-6.05,6.07A6.09,6.09,0,0,1,162.46.74Zm4.32,24.72.13,76.67h-8.56l-.13-76.67Z" transform="translate(-1.09 -0.74)"/><path class="cls-1" d="M226.75,62.09a29.57,29.57,0,0,1-6.05,8,23.93,23.93,0,0,1-16.39,6.09c-11.89,0-24.38-7.44-24.41-25.75,0-14.74,9-26.17,23.84-26.19,9.63,0,15.7,4.73,18.68,9s4.89,12,4.67,18.54l-38.4.06c.14,10.22,7.16,16.75,15.72,16.73A15,15,0,0,0,214.51,65a19.57,19.57,0,0,0,5.1-6.78Zm-8.47-17.46c-1.44-7.72-7.27-12.83-14.52-12.81s-13.19,5.49-14.48,12.86Z" transform="translate(-1.09 -0.74)"/><path class="cls-1" d="M278.77,39.06a19.89,19.89,0,0,0-15.46-7.34c-9.16,0-17.47,6.44-17.45,18.45s8.59,18.29,17.39,18.28a21,21,0,0,0,15.91-7.76l0,10.23a26.36,26.36,0,0,1-15.68,5.13c-15.33,0-26.41-10.89-26.43-25.75,0-15.09,11.13-26.17,26.34-26.19a26.13,26.13,0,0,1,15.34,4.73Z" transform="translate(-1.09 -0.74)"/><path class="cls-1" d="M301,33.08l.07,41.48-8.56,0-.07-41.49H287.2l0-7.84h5.23l0-17.83,8.56,0,0,17.83h8.56v7.84Z" transform="translate(-1.09 -0.74)"/><path class="cls-1" d="M366.61,36.82a7.57,7.57,0,0,0-6.91-5c-3.09,0-5.94,1.79-5.93,5.59,0,3.57,2.39,4.63,8,7,7.13,3,10.47,5.22,12.37,7.59a11.68,11.68,0,0,1,2.63,8c0,10.34-7.46,16.18-17,16.19A17.63,17.63,0,0,1,342.52,63.6l7.37-3.1c.95,2.61,3.81,8.08,10,8.07A7.67,7.67,0,0,0,368,60.71c0-4.64-3.34-6.18-8-8.19-6-2.61-9.76-4.5-12-7.23A10.68,10.68,0,0,1,345.69,38c0-8.68,6-13.8,14.36-13.81,2.61,0,9.63.46,13.56,8.89Z" transform="translate(-1.09 -0.74)"/><path class="cls-1" d="M426.75,39.09a19.89,19.89,0,0,0-15.46-7.34c-9.15,0-17.46,6.45-17.44,18.45s8.59,18.29,17.38,18.28a21.06,21.06,0,0,0,15.92-7.75l0,10.22a26.41,26.41,0,0,1-15.69,5.14c-15.33,0-26.4-10.89-26.43-25.75,0-15.1,11.13-26.17,26.35-26.2a26.16,26.16,0,0,1,15.34,4.73Z" transform="translate(-1.09 -0.74)"/><path class="cls-2" d="M446.62,50.11c0-15,11-26,26.11-26.07s26.17,11,26.19,26S487.79,76,472.81,76,446.65,65.09,446.62,50.11Zm8.8,0c0,12.12,8.59,18.29,17.38,18.28S490.15,62.05,490.13,50s-8.36-18.41-17.39-18.39S455.4,38.09,455.42,50.1Z" transform="translate(-1.09 -0.74)"/><path class="cls-1" d="M521.46,25.15l8.56,0v5.35c.83-1.31,4.51-6.54,11.16-6.56a18.21,18.21,0,0,1,7.61,2l-4,7.74a8.76,8.76,0,0,0-5-1.66,8.28,8.28,0,0,0-6.89,3.1c-1.42,1.91-2.84,5.24-2.83,13.32l0,26-8.56,0Z" transform="translate(-1.09 -0.74)"/><path class="cls-1" d="M597.6,61.75a29.57,29.57,0,0,1-6.05,8,23.93,23.93,0,0,1-16.39,6.09c-11.89,0-24.39-7.45-24.42-25.75,0-14.74,9-26.17,23.85-26.19,9.63,0,15.7,4.73,18.68,9s4.89,12,4.67,18.54l-38.4.06c.14,10.22,7.16,16.75,15.72,16.73a15,15,0,0,0,10.1-3.58,19.7,19.7,0,0,0,5.1-6.78Zm-8.47-17.46c-1.44-7.73-7.27-12.83-14.52-12.81S561.42,37,560.12,44.34Z" transform="translate(-1.09 -0.74)"/></g><g id="Layer_3" data-name="Layer 3"><rect class="cls-2" x="432.73" y="45.38" width="28.36" height="7.76"/><rect class="cls-2" x="458.82" y="21.12" width="28.36" height="7.76" transform="translate(446.91 497.26) rotate(-90)"/><rect class="cls-2" x="458.82" y="71.12" width="28.36" height="7.76" transform="translate(396.91 547.26) rotate(-90)"/><rect class="cls-2" x="482.73" y="45.38" width="28.36" height="7.76"/><circle class="cls-3" cx="471.91" cy="49.26" r="7.84"/></g></svg>