<svg id="Layer_1" data-name="Layer 1" xmlns="http://www.w3.org/2000/svg" viewBox="0 0 425.45 82.2"><defs><style>.cls-1{fill:#18a138;}</style></defs><title>full col 1 line</title><path d="M112.28,27.53a.82.82,0,0,1-.92-.92V25c.74-.12,1.57-.24,2.49-.37s1.87-.22,2.85-.3,2-.16,3-.22,1.88-.09,2.7-.09a23.72,23.72,0,0,1,6.36.77,10.3,10.3,0,0,1,4.54,2.55A11.12,11.12,0,0,1,136,32.11a25.5,25.5,0,0,1,.92,7.4,35.39,35.39,0,0,1-.62,7,13.74,13.74,0,0,1-2,5.09,9,9,0,0,1-3.75,3.13,13.89,13.89,0,0,1-5.83,1.08,15.21,15.21,0,0,1-5-.68c-1.27-.45-2.25-.84-2.95-1.16V65.79h-2.51a.82.82,0,0,1-.93-.92V27.53Zm12,25.24a12.07,12.07,0,0,0,4-.61A6.09,6.09,0,0,0,131.16,50a10.27,10.27,0,0,0,1.69-4,29.73,29.73,0,0,0,.55-6.3,26.64,26.64,0,0,0-.55-5.86,9.22,9.22,0,0,0-1.84-4,7.34,7.34,0,0,0-3.44-2.24,17,17,0,0,0-5.34-.71q-1,0-2.58.06c-1,0-2,.1-2.89.18V51a25.09,25.09,0,0,0,3.38,1.26A14.63,14.63,0,0,0,124.26,52.77Z"/><path d="M157.05,24.34a3,3,0,0,1,1.53.24.88.88,0,0,1,.31.74v2.21a6.44,6.44,0,0,0-.89-.06h-.77a10.62,10.62,0,0,0-5,1.14,15,15,0,0,0-4.33,3.59V55.35h-2.52a.81.81,0,0,1-.92-.92v-30h2.27a.82.82,0,0,1,.92.92l.12,3.44a16,16,0,0,1,1.66-1.53,13.54,13.54,0,0,1,2.18-1.45,14.86,14.86,0,0,1,2.58-1.07A9.44,9.44,0,0,1,157.05,24.34Z"/><path d="M175.29,23.72q6.63,0,9.58,4t2.94,12.18q0,8.3-2.94,12.26t-9.58,4q-6.64,0-9.58-4t-3-12.26q0-8.22,3-12.18T175.29,23.72Zm0,29.36a10.26,10.26,0,0,0,4-.71,6.65,6.65,0,0,0,2.82-2.27A10.85,10.85,0,0,0,183.76,46a29,29,0,0,0,.55-6.14,28.65,28.65,0,0,0-.55-6.11,10.92,10.92,0,0,0-1.69-4,6.65,6.65,0,0,0-2.82-2.27,11.43,11.43,0,0,0-7.93,0,6.65,6.65,0,0,0-2.82,2.27,10.92,10.92,0,0,0-1.69,4,28.65,28.65,0,0,0-.55,6.11,29,29,0,0,0,.55,6.14,10.85,10.85,0,0,0,1.69,4.09,6.65,6.65,0,0,0,2.82,2.27A10.27,10.27,0,0,0,175.29,53.08Z"/><path d="M198.93,59.77a9.34,9.34,0,0,1-.28,2.3,4.83,4.83,0,0,1-2.79,3.41,7,7,0,0,1-3,.55,6.51,6.51,0,0,1-2.52-.36,1.21,1.21,0,0,1-.61-1.11V63.09c.41,0,.81.06,1.19.06h1.2c1.39,0,2.31-.3,2.74-.89a4.21,4.21,0,0,0,.64-2.49V24.46H198a.82.82,0,0,1,.92.92Zm-1.66-38.38a2.8,2.8,0,0,1-1.9-.55,2.58,2.58,0,0,1-.62-2,2.58,2.58,0,0,1,.62-2,3.56,3.56,0,0,1,3.8,0,2.58,2.58,0,0,1,.62,2,2.58,2.58,0,0,1-.62,2A2.82,2.82,0,0,1,197.27,21.39Z"/><path d="M219.93,55.9a18.93,18.93,0,0,1-6-.83,9.08,9.08,0,0,1-4.14-2.7,11.91,11.91,0,0,1-2.43-4.91,29.63,29.63,0,0,1-.8-7.4,30.89,30.89,0,0,1,.8-7.58,13,13,0,0,1,2.37-5,9.15,9.15,0,0,1,3.87-2.83,14.7,14.7,0,0,1,5.31-.89,13.18,13.18,0,0,1,5.56,1,8.06,8.06,0,0,1,3.37,2.76,10.94,10.94,0,0,1,1.66,4.15A27,27,0,0,1,230,36.8q0,1.23-.12,2.46a16.49,16.49,0,0,1-.31,2H210a33.84,33.84,0,0,0,.68,5.34,8.58,8.58,0,0,0,1.63,3.62,6.41,6.41,0,0,0,3.1,2.06,16.46,16.46,0,0,0,5,.64,27.94,27.94,0,0,0,4.82-.33,15.85,15.85,0,0,1,2.55-.34.89.89,0,0,1,.77.3,1.1,1.1,0,0,1,.21.62v1.6a18.53,18.53,0,0,1-3.77.79A48.32,48.32,0,0,1,219.93,55.9Zm-1-29.17a9.43,9.43,0,0,0-4.27.86A6.82,6.82,0,0,0,212,30a10.54,10.54,0,0,0-1.45,3.68,27.29,27.29,0,0,0-.49,4.64h16.52a6,6,0,0,0,.06-.83v-.77a28.33,28.33,0,0,0-.3-4.36,7.58,7.58,0,0,0-1.17-3.13,5.41,5.41,0,0,0-2.33-1.87A9.81,9.81,0,0,0,219,26.73Z"/><path d="M256.47,54.74a19.5,19.5,0,0,1-3.66.82,28.84,28.84,0,0,1-4.26.34,12.83,12.83,0,0,1-5.68-1.13,9.25,9.25,0,0,1-3.69-3.23,14,14,0,0,1-2-5,33.93,33.93,0,0,1-.58-6.48q0-8.6,3-12.37c2-2.52,5-3.78,8.91-3.78.61,0,1.28,0,2,.09s1.39.13,2,.22,1.21.17,1.72.27a4.68,4.68,0,0,1,1.13.34,1.11,1.11,0,0,1,.8,1.1v1.72c-1.31-.2-2.55-.37-3.71-.52a29.77,29.77,0,0,0-3.54-.21,10.59,10.59,0,0,0-3.86.64,6.25,6.25,0,0,0-2.77,2.12,10.21,10.21,0,0,0-1.65,4,28.93,28.93,0,0,0-.56,6.17,27.54,27.54,0,0,0,.65,6.6,10.4,10.4,0,0,0,1.81,4,5.88,5.88,0,0,0,2.82,2,12,12,0,0,0,3.63.52,21.54,21.54,0,0,0,4-.33,14.58,14.58,0,0,1,2.49-.34.87.87,0,0,1,.76.3,1.12,1.12,0,0,1,.22.62Z"/><path d="M274.76,52.71a1.35,1.35,0,0,1,1,.27,1,1,0,0,1,.24.65v1.66a20.93,20.93,0,0,1-4.35.49,10.49,10.49,0,0,1-3.38-.46A5.35,5.35,0,0,1,266.11,54a4.69,4.69,0,0,1-1.14-2,8.8,8.8,0,0,1-.34-2.48V27.41h-2.76a.82.82,0,0,1-.92-.92v-2h3.68V16.17h2.52a.81.81,0,0,1,.92.92v7.37h7a.81.81,0,0,1,.92.92v2h-7.92V49.15a7.41,7.41,0,0,0,.13,1.5,2.23,2.23,0,0,0,.58,1.14,2.81,2.81,0,0,0,1.35.73,9.18,9.18,0,0,0,2.43.25c.45,0,.88,0,1.28,0Z"/><path d="M297.39,54.86a1.15,1.15,0,0,1-.8-1.17V52c1.06.21,2.37.41,3.93.62a38.43,38.43,0,0,0,4.91.3,19.4,19.4,0,0,0,4.21-.37,6.27,6.27,0,0,0,2.55-1.1,3.71,3.71,0,0,0,1.25-1.78,7.9,7.9,0,0,0,.34-2.46,5.66,5.66,0,0,0-.52-2.64,4.56,4.56,0,0,0-1.56-1.66,9.84,9.84,0,0,0-2.64-1.13q-1.6-.47-3.75-1c-1.23-.32-2.39-.67-3.5-1a10.2,10.2,0,0,1-2.89-1.47A6.42,6.42,0,0,1,297,35.85a8.3,8.3,0,0,1-.71-3.65,7.6,7.6,0,0,1,2.55-6.11q2.55-2.18,7.83-2.18l1.63,0c.71,0,1.47.07,2.27.15s1.59.19,2.36.31a12.32,12.32,0,0,1,1.91.43,1.14,1.14,0,0,1,.79,1.17v1.65c-1.26-.2-2.63-.38-4.08-.55a38.83,38.83,0,0,0-4.26-.24,17.24,17.24,0,0,0-3.69.33,6.53,6.53,0,0,0-2.36,1A3.26,3.26,0,0,0,300,29.77a6.6,6.6,0,0,0-.34,2.24,5.63,5.63,0,0,0,.4,2.31,3.75,3.75,0,0,0,1.32,1.53A8.8,8.8,0,0,0,303.74,37c1,.31,2.14.62,3.54.95s2.69.68,3.89,1.07a11.83,11.83,0,0,1,3.17,1.54A6.44,6.44,0,0,1,316.45,43a9,9,0,0,1,.77,4q0,4.78-2.91,6.82t-8.14,2c-.49,0-1.15,0-2-.06s-1.65-.1-2.51-.18-1.69-.19-2.49-.31A6.45,6.45,0,0,1,297.39,54.86Z"/><path d="M343.38,54.74a19.56,19.56,0,0,1-3.65.82,29,29,0,0,1-4.27.34,12.89,12.89,0,0,1-5.68-1.13,9.29,9.29,0,0,1-3.68-3.23,14,14,0,0,1-2-5,33.14,33.14,0,0,1-.58-6.48q0-8.6,3-12.37t8.9-3.78c.62,0,1.28,0,2,.09s1.39.13,2,.22,1.21.17,1.72.27a5,5,0,0,1,1.14.34,1.11,1.11,0,0,1,.8,1.1v1.72c-1.31-.2-2.55-.37-3.72-.52a29.48,29.48,0,0,0-3.53-.21,10.68,10.68,0,0,0-3.87.64,6.28,6.28,0,0,0-2.76,2.12,10.22,10.22,0,0,0-1.66,4,29,29,0,0,0-.55,6.17,27.6,27.6,0,0,0,.64,6.6,10.55,10.55,0,0,0,1.81,4,5.86,5.86,0,0,0,2.83,2,11.91,11.91,0,0,0,3.62.52,21.39,21.39,0,0,0,4-.33,14.83,14.83,0,0,1,2.49-.34.89.89,0,0,1,.77.3,1.1,1.1,0,0,1,.21.62Z"/><path d="M360.52,23.72q6.63,0,9.58,4T373,39.87q0,8.3-2.94,12.26t-9.58,4q-6.64,0-9.58-4T348,39.87q0-8.22,2.95-12.18T360.52,23.72Zm0,29.36a10.26,10.26,0,0,0,4-.71,6.65,6.65,0,0,0,2.82-2.27A10.85,10.85,0,0,0,369,46a29,29,0,0,0,.55-6.14,28.65,28.65,0,0,0-.55-6.11,10.92,10.92,0,0,0-1.69-4,6.65,6.65,0,0,0-2.82-2.27,11.43,11.43,0,0,0-7.93,0,6.65,6.65,0,0,0-2.82,2.27,10.92,10.92,0,0,0-1.69,4,28.65,28.65,0,0,0-.55,6.11A29,29,0,0,0,352,46a10.85,10.85,0,0,0,1.69,4.09,6.65,6.65,0,0,0,2.82,2.27A10.27,10.27,0,0,0,360.52,53.08Z"/><path d="M393.18,24.34a3,3,0,0,1,1.54.24.91.91,0,0,1,.31.74v2.21a6.54,6.54,0,0,0-.89-.06h-.77a10.66,10.66,0,0,0-5,1.14A15.16,15.16,0,0,0,384,32.2V55.35h-2.51a.82.82,0,0,1-.93-.92v-30h2.28a.82.82,0,0,1,.92.92l.12,3.44a15,15,0,0,1,1.66-1.53,13.11,13.11,0,0,1,2.18-1.45,14.86,14.86,0,0,1,2.58-1.07A9.42,9.42,0,0,1,393.18,24.34Z"/><path d="M413.45,55.9a18.93,18.93,0,0,1-6-.83,9.08,9.08,0,0,1-4.14-2.7,11.91,11.91,0,0,1-2.43-4.91,29.63,29.63,0,0,1-.8-7.4,30.89,30.89,0,0,1,.8-7.58,13,13,0,0,1,2.37-5,9.18,9.18,0,0,1,3.86-2.83,14.77,14.77,0,0,1,5.31-.89,13.12,13.12,0,0,1,5.56,1,8,8,0,0,1,3.38,2.76,10.94,10.94,0,0,1,1.66,4.15,27,27,0,0,1,.46,5.15q0,1.23-.12,2.46a16.49,16.49,0,0,1-.31,2H403.56a33.84,33.84,0,0,0,.68,5.34,8.7,8.7,0,0,0,1.62,3.62A6.45,6.45,0,0,0,409,52.25a16.42,16.42,0,0,0,5,.64,28,28,0,0,0,4.82-.33,15.85,15.85,0,0,1,2.55-.34.89.89,0,0,1,.77.3,1.1,1.1,0,0,1,.21.62v1.6a18.53,18.53,0,0,1-3.77.79A48.32,48.32,0,0,1,413.45,55.9Zm-1-29.17a9.39,9.39,0,0,0-4.26.86A6.82,6.82,0,0,0,405.5,30a10.54,10.54,0,0,0-1.45,3.68,26.31,26.31,0,0,0-.49,4.64h16.52a6,6,0,0,0,.06-.83v-.77a28.33,28.33,0,0,0-.3-4.36,7.58,7.58,0,0,0-1.17-3.13,5.44,5.44,0,0,0-2.34-1.87A9.74,9.74,0,0,0,412.46,26.73Z"/><path class="cls-1" d="M70.31,69.44a40.07,40.07,0,1,1,0-56.67A40.11,40.11,0,0,1,70.31,69.44ZM19.57,18.7a31.69,31.69,0,1,0,44.82,0A31.73,31.73,0,0,0,19.57,18.7Z"/><path class="cls-1" d="M25.23,57.85a23.62,23.62,0,0,1-1.77-2l-1,.89C16.29,62.28,10,67.67,3.19,72.62l7.27,7.27c4.95-6.77,10.34-13.1,15.86-19.29.3-.33.6-.65.89-1A23.43,23.43,0,0,1,25.23,57.85Z"/><path class="cls-1" d="M23.45,26.35a23,23,0,0,1,3.78-3.78l-.9-1C20.82,15.4,15.42,9.07,10.46,2.31L3.19,9.59c6.76,5,13.09,10.35,19.28,15.87Z"/><path class="cls-1" d="M57.63,21.59l-.89,1a25.36,25.36,0,0,1,2,1.78,23.8,23.8,0,0,1,1.78,2l1-.89C67.69,19.94,74,14.55,80.77,9.59L73.5,2.31C68.54,9.07,63.15,15.4,57.63,21.59Z"/><path class="cls-1" d="M60.5,55.87a23.75,23.75,0,0,1-3.75,3.75c.3.33.6.65.89,1,5.52,6.19,10.91,12.52,15.86,19.29l7.27-7.27c-6.77-5-13.1-10.34-19.3-15.86Z"/><path class="cls-1" d="M56.17,55.29a20.07,20.07,0,1,1,0-28.38A20.08,20.08,0,0,1,56.17,55.29ZM30.76,29.88a15.87,15.87,0,1,0,22.44,0A15.88,15.88,0,0,0,30.76,29.88Z"/><circle cx="41.98" cy="41.1" r="5.85"/></svg>