<svg id="Layer_1" data-name="Layer 1" xmlns="http://www.w3.org/2000/svg" viewBox="0 0 283.46 126.97"><defs><style>.cls-1{fill:#18a138;}</style></defs><title>LS1 colour</title><path d="M145.18,39.43a8.34,8.34,0,0,0-2-3.49,7.72,7.72,0,0,0-3.34-1.87,17.4,17.4,0,0,0-4.65-.57c-.6,0-1.27,0-2,.09s-1.43.09-2.14.14-1.43.13-2.1.23-1.29.18-1.82.28v1.15a.6.6,0,0,0,.68.68h.75V63.42a.6.6,0,0,0,.68.67h1.84V55.42c.52.22,1.24.52,2.16.84a11.17,11.17,0,0,0,3.65.49,10.26,10.26,0,0,0,4.26-.78,6.62,6.62,0,0,0,2.75-2.29A10.09,10.09,0,0,0,145.39,50a25.36,25.36,0,0,0,.45-5.11A18.84,18.84,0,0,0,145.18,39.43Zm-2.3,10.2a7.22,7.22,0,0,1-1.25,2.92,4.3,4.3,0,0,1-2.08,1.55,8.57,8.57,0,0,1-3,.45,10.61,10.61,0,0,1-3-.39,16.49,16.49,0,0,1-2.47-.91V35.85c.67-.07,1.37-.1,2.11-.13s1.39,0,1.89,0a12.92,12.92,0,0,1,3.92.52,5.41,5.41,0,0,1,2.52,1.64,6.85,6.85,0,0,1,1.35,2.9,20.32,20.32,0,0,1,.39,4.29A22.56,22.56,0,0,1,142.88,49.63Z"/><path d="M161.72,33.91a2.32,2.32,0,0,0-1.12-.18,7,7,0,0,0-2.1.33,9.88,9.88,0,0,0-1.89.78A9.56,9.56,0,0,0,155,35.9,9.82,9.82,0,0,0,153.8,37l-.08-2.52a.6.6,0,0,0-.69-.67h-1.66V55.77a.6.6,0,0,0,.67.67h1.86V39.49a10.8,10.8,0,0,1,3.17-2.63,7.72,7.72,0,0,1,3.66-.83h.55a4.83,4.83,0,0,1,.67,0V34.45A.68.68,0,0,0,161.72,33.91Z"/><path d="M181,36.19c-1.44-1.94-3.77-2.9-7-2.9s-5.58,1-7,2.9-2.15,4.91-2.15,8.93.71,7,2.15,9,3.79,2.9,7,2.9,5.57-1,7-2.9,2.15-4.93,2.15-9S182.4,38.12,181,36.19Zm-.81,13.42a8.24,8.24,0,0,1-1.23,3,4.75,4.75,0,0,1-2.07,1.66,8.37,8.37,0,0,1-5.81,0A4.78,4.78,0,0,1,169,52.6a8.07,8.07,0,0,1-1.24-3,22,22,0,0,1-.41-4.49,21.83,21.83,0,0,1,.41-4.49,8.06,8.06,0,0,1,1.24-3A4.78,4.78,0,0,1,171,36a8.37,8.37,0,0,1,5.81,0,4.75,4.75,0,0,1,2.07,1.66,8.23,8.23,0,0,1,1.23,3,20.51,20.51,0,0,1,.41,4.49A20.7,20.7,0,0,1,180.15,49.61Z"/><path d="M191.44,26.14a2.6,2.6,0,0,0-2.8,0,1.89,1.89,0,0,0-.44,1.43,1.91,1.91,0,0,0,.44,1.44,2.6,2.6,0,0,0,2.8,0,1.9,1.9,0,0,0,.46-1.44A1.89,1.89,0,0,0,191.44,26.14Zm-.86,7.69h-1.84V59.68a3.1,3.1,0,0,1-.47,1.82c-.31.44-1,.65-2,.65h-.88a6.78,6.78,0,0,1-.88,0v1.09a.86.86,0,0,0,.46.8,4.45,4.45,0,0,0,1.83.28,5.09,5.09,0,0,0,2.22-.41,3.52,3.52,0,0,0,1.33-1,3.6,3.6,0,0,0,.7-1.46,6.42,6.42,0,0,0,.21-1.69V34.5A.6.6,0,0,0,190.58,33.83Z"/><path d="M213.68,39.08a8,8,0,0,0-1.22-3A6.08,6.08,0,0,0,210,34a9.77,9.77,0,0,0-4.07-.74,10.61,10.61,0,0,0-3.89.65A6.74,6.74,0,0,0,199.2,36a9.55,9.55,0,0,0-1.74,3.68,22.54,22.54,0,0,0-.59,5.56,21.57,21.57,0,0,0,.59,5.42,9,9,0,0,0,1.77,3.59,6.83,6.83,0,0,0,3.05,2,14.11,14.11,0,0,0,4.35.6,34,34,0,0,0,3.76-.28,12.88,12.88,0,0,0,2.77-.58V54.83a.71.71,0,0,0-.16-.45.64.64,0,0,0-.56-.23,12.24,12.24,0,0,0-1.87.24,20.31,20.31,0,0,1-3.53.26,11.56,11.56,0,0,1-3.69-.49,4.59,4.59,0,0,1-2.26-1.49A6.23,6.23,0,0,1,199.9,50a25.5,25.5,0,0,1-.5-3.92h14.29a8.86,8.86,0,0,0,.23-1.44,15.49,15.49,0,0,0,.08-1.8A19.73,19.73,0,0,0,213.68,39.08Zm-2.15,4.3c0,.19,0,.41,0,.6H199.4a19.29,19.29,0,0,1,.35-3.38,8,8,0,0,1,1.06-2.7,5.18,5.18,0,0,1,2-1.78,6.82,6.82,0,0,1,3.12-.63,7.22,7.22,0,0,1,2.83.47,4,4,0,0,1,1.71,1.37,5.59,5.59,0,0,1,.86,2.29,20.49,20.49,0,0,1,.21,3.21Z"/><path d="M233.23,54.38a.62.62,0,0,0-.55-.23,11,11,0,0,0-1.82.24,16,16,0,0,1-2.92.26,8.71,8.71,0,0,1-2.65-.39,4.39,4.39,0,0,1-2.06-1.43,7.67,7.67,0,0,1-1.32-2.93,19.57,19.57,0,0,1-.47-4.83,22,22,0,0,1,.39-4.52,7.64,7.64,0,0,1,1.22-2.9,4.63,4.63,0,0,1,2-1.56,7.8,7.8,0,0,1,2.83-.47,20.46,20.46,0,0,1,2.59.16c.84.1,1.76.23,2.72.38V34.9a.83.83,0,0,0-.59-.81,4.61,4.61,0,0,0-.83-.24c-.37-.07-.8-.15-1.27-.2s-1-.11-1.48-.16-1-.07-1.46-.07a7.82,7.82,0,0,0-6.53,2.77q-2.19,2.76-2.19,9.06a24.4,24.4,0,0,0,.42,4.73,10.31,10.31,0,0,0,1.45,3.68,6.66,6.66,0,0,0,2.7,2.36,9.35,9.35,0,0,0,4.15.83,20.84,20.84,0,0,0,3.12-.25,13.82,13.82,0,0,0,2.68-.61V54.83A.66.66,0,0,0,233.23,54.38Z"/><path d="M247.69,36V34.5a.6.6,0,0,0-.68-.67h-5.12v-5.4a.59.59,0,0,0-.67-.67h-1.86v6.07h-2.68v1.48a.58.58,0,0,0,.67.67h2V52.21a6.45,6.45,0,0,0,.26,1.82,3.49,3.49,0,0,0,.83,1.45,3.9,3.9,0,0,0,1.58,1,7.88,7.88,0,0,0,2.47.32,14.92,14.92,0,0,0,3.19-.36v-1.2a.67.67,0,0,0-.18-.47c-.13-.15-.35-.21-.73-.21l-.66,0h-1a7.37,7.37,0,0,1-1.77-.17,2,2,0,0,1-1-.54A1.59,1.59,0,0,1,242,53a6.08,6.08,0,0,1-.09-1.11V36Z"/><path d="M142.13,84.42a4.94,4.94,0,0,0-1.54-1.84,9.17,9.17,0,0,0-2.33-1.12c-.88-.28-1.84-.55-2.84-.78s-1.89-.47-2.59-.7a6.58,6.58,0,0,1-1.74-.81,2.72,2.72,0,0,1-1-1.13,4,4,0,0,1-.29-1.69,5.1,5.1,0,0,1,.24-1.64,2.41,2.41,0,0,1,.9-1.16,4.93,4.93,0,0,1,1.74-.73,12.6,12.6,0,0,1,2.7-.24,28.13,28.13,0,0,1,3.12.18c1.06.13,2.05.26,3,.4V71.94a.83.83,0,0,0-.58-.84,8,8,0,0,0-1.4-.31c-.57-.1-1.16-.18-1.73-.23s-1.15-.1-1.67-.11l-1.19,0c-2.57,0-4.49.53-5.73,1.61a5.52,5.52,0,0,0-1.87,4.47,6,6,0,0,0,.52,2.67,4.93,4.93,0,0,0,1.42,1.74A7.88,7.88,0,0,0,131.41,82c.8.26,1.66.52,2.56.77,1.06.26,2,.52,2.75.73a7.22,7.22,0,0,1,1.93.84,3.36,3.36,0,0,1,1.14,1.21,4.08,4.08,0,0,1,.39,1.93,5.53,5.53,0,0,1-.26,1.81,2.77,2.77,0,0,1-.91,1.3,4.57,4.57,0,0,1-1.87.81,14.44,14.44,0,0,1-3.07.26,25.88,25.88,0,0,1-3.6-.22c-1.15-.15-2.1-.3-2.88-.44v1.25a.86.86,0,0,0,.59.86,4.82,4.82,0,0,0,1.32.36c.58.08,1.18.16,1.82.23l1.84.13c.6,0,1.09,0,1.44,0a10.34,10.34,0,0,0,6-1.5c1.43-1,2.13-2.65,2.13-5A6.74,6.74,0,0,0,142.13,84.42Z"/><path d="M161.69,91.38a.6.6,0,0,0-.56-.22,11.53,11.53,0,0,0-1.82.24,15.85,15.85,0,0,1-2.89.24,9.41,9.41,0,0,1-2.67-.37,4.28,4.28,0,0,1-2.07-1.45,7.43,7.43,0,0,1-1.31-2.91,19.58,19.58,0,0,1-.48-4.85,20.36,20.36,0,0,1,.41-4.5,7.72,7.72,0,0,1,1.2-2.92,4.55,4.55,0,0,1,2-1.54,7.8,7.8,0,0,1,2.83-.47,20.58,20.58,0,0,1,2.59.16c.84.1,1.75.23,2.71.37V71.91a.8.8,0,0,0-.58-.81,3,3,0,0,0-.83-.25c-.38-.08-.8-.14-1.26-.21s-1-.11-1.49-.14-1-.08-1.47-.08a7.79,7.79,0,0,0-6.5,2.76c-1.48,1.86-2.22,4.86-2.22,9.06a24.57,24.57,0,0,0,.43,4.75,10.05,10.05,0,0,0,1.44,3.66A6.61,6.61,0,0,0,151.9,93a9.06,9.06,0,0,0,4.14.85,21.39,21.39,0,0,0,3.14-.26,13.35,13.35,0,0,0,2.67-.61V91.82A.75.75,0,0,0,161.69,91.38Z"/><path d="M181.4,73.18c-1.43-1.92-3.77-2.9-7-2.9s-5.58,1-7,2.9-2.16,4.91-2.16,8.93.73,7,2.16,9,3.78,2.9,7,2.9,5.58-1,7-2.9,2.17-4.93,2.17-9S182.85,75.12,181.4,73.18Zm-.79,13.44a8.13,8.13,0,0,1-1.24,3,4.94,4.94,0,0,1-2.07,1.68,8.66,8.66,0,0,1-5.8,0,4.88,4.88,0,0,1-2.07-1.68,8,8,0,0,1-1.24-3,21.55,21.55,0,0,1-.4-4.51,21,21,0,0,1,.4-4.47,7.91,7.91,0,0,1,1.24-3A4.88,4.88,0,0,1,171.5,73a8.66,8.66,0,0,1,5.8,0,4.94,4.94,0,0,1,2.07,1.68,8.08,8.08,0,0,1,1.24,3,21.69,21.69,0,0,1,.4,4.47A22.25,22.25,0,0,1,180.61,86.62Z"/><path d="M199.44,70.92a2.21,2.21,0,0,0-1.12-.18,7.07,7.07,0,0,0-2.1.31,9.84,9.84,0,0,0-1.88.8,9.22,9.22,0,0,0-1.6,1.05A9,9,0,0,0,191.52,74l-.08-2.52a.61.61,0,0,0-.68-.69H189.1v22a.6.6,0,0,0,.68.68h1.84v-17a11.14,11.14,0,0,1,3.17-2.64,7.84,7.84,0,0,1,3.66-.83H199a4.74,4.74,0,0,1,.65,0V71.46A.63.63,0,0,0,199.44,70.92Z"/><path d="M220.2,76.09a8,8,0,0,0-1.22-3,5.93,5.93,0,0,0-2.47-2,9.61,9.61,0,0,0-4.07-.75,10.82,10.82,0,0,0-3.89.66A6.69,6.69,0,0,0,205.71,73,9.59,9.59,0,0,0,204,76.69a22.67,22.67,0,0,0-.58,5.55,21.75,21.75,0,0,0,.58,5.43,8.82,8.82,0,0,0,1.78,3.6,6.71,6.71,0,0,0,3,2,14.05,14.05,0,0,0,4.36.62c1.32,0,2.57-.13,3.76-.28a12.82,12.82,0,0,0,2.76-.59V91.82a.82.82,0,0,0-.16-.44.6.6,0,0,0-.55-.22,12,12,0,0,0-1.88.24,20.71,20.71,0,0,1-3.53.24,11.66,11.66,0,0,1-3.69-.47,4.66,4.66,0,0,1-2.26-1.49,6.26,6.26,0,0,1-1.2-2.67,25.15,25.15,0,0,1-.49-3.91h14.3a14.37,14.37,0,0,0,.23-1.43c0-.6.08-1.2.08-1.8A21.36,21.36,0,0,0,220.2,76.09Zm-2.15,4.3a4.22,4.22,0,0,1,0,.6H205.92a19.7,19.7,0,0,1,.36-3.4,8.23,8.23,0,0,1,1.05-2.7,5.09,5.09,0,0,1,2-1.77,8.43,8.43,0,0,1,6-.15A3.87,3.87,0,0,1,217,74.34a5.45,5.45,0,0,1,.85,2.29,19,19,0,0,1,.22,3.19Z"/><path class="cls-1" d="M103.23,60.88a30.19,30.19,0,0,0-27.08-27.1c.24-2.47.55-4.93.92-7.4H69.33c.37,2.47.68,4.93.94,7.4a30.23,30.23,0,0,0-27.1,27.1c-2.47-.24-4.93-.55-7.4-.94v7.74c2.47-.39,4.93-.7,7.4-.94a30.23,30.23,0,0,0,27.12,27.1c-.26,2.47-.57,4.93-1,7.4h7.74c-.37-2.47-.68-4.93-.94-7.4a30.2,30.2,0,0,0,27.1-27.1c2.47.26,5,.57,7.42.94V59.94C108.18,60.31,105.7,60.62,103.23,60.88ZM85.89,63.81a13.35,13.35,0,0,1-.13,1.79c2,.07,4.12.16,6.17.28,1.67.09,3.35.19,5,.32A23.86,23.86,0,0,1,75.58,87.54c-.12-1.65-.23-3.33-.31-5-.15-2-.21-4.11-.28-6.16a13.23,13.23,0,0,1-1.79.13,12.94,12.94,0,0,1-1.77-.13c-.07,2-.13,4.11-.28,6.16-.1,1.68-.19,3.36-.32,5A23.83,23.83,0,0,1,49.47,66.19c1.67-.13,3.35-.23,5-.33,2-.15,4.1-.19,6.15-.26a12.39,12.39,0,0,1,0-3.58c-2-.06-4.1-.11-6.15-.26-1.67-.1-3.35-.19-5-.32A23.84,23.84,0,0,1,70.81,40.08c.13,1.66.23,3.33.33,5,.13,2,.21,4.11.27,6.16a12.53,12.53,0,0,1,3.6,0c.06-2,.14-4.11.27-6.16.1-1.68.2-3.35.31-5A23.84,23.84,0,0,1,96.94,61.42c-1.66.13-3.34.23-5,.32-2.05.12-4.12.22-6.17.28A13.35,13.35,0,0,1,85.89,63.81Z"/><path d="M81.33,63.81a8.85,8.85,0,0,1-.14,1.55,8.16,8.16,0,0,1-6.46,6.43,7.09,7.09,0,0,1-1.53.15,6.73,6.73,0,0,1-1.51-.15,8.09,8.09,0,0,1-6.47-6.45,8.43,8.43,0,0,1,0-3.06,8.11,8.11,0,0,1,6.43-6.45,8.08,8.08,0,0,1,3.1,0,8.17,8.17,0,0,1,6.44,6.43A8.85,8.85,0,0,1,81.33,63.81Z"/></svg>