<svg id="Layer_1" data-name="Layer 1" xmlns="http://www.w3.org/2000/svg" viewBox="0 0 85.66 87.03"><defs><style>.cls-1{fill:#18a138;}</style></defs><title>symbol</title><path class="cls-1" d="M71.78,72.89a41.55,41.55,0,1,1,0-58.75A41.6,41.6,0,0,1,71.78,72.89ZM19.17,20.28a32.86,32.86,0,1,0,46.46,0A32.9,32.9,0,0,0,19.17,20.28Z"/><path class="cls-1" d="M25,60.88a25.28,25.28,0,0,1-1.83-2.05l-1,.92c-6.43,5.73-13,11.32-20,16.44l7.54,7.55c5.13-7,10.72-13.59,16.44-20l.92-1A24.88,24.88,0,0,1,25,60.88Z"/><path class="cls-1" d="M23.19,28.22A23.89,23.89,0,0,1,25,26.15,27.65,27.65,0,0,1,27.1,24.3c-.31-.33-.62-.67-.92-1-5.73-6.43-11.32-13-16.46-20L2.18,10.84c7,5.14,13.57,10.73,20,16.45Z"/><path class="cls-1" d="M58.62,23.29c-.3.34-.61.68-.92,1a27.65,27.65,0,0,1,2.07,1.85,23.89,23.89,0,0,1,1.84,2.07l1-.93c6.42-5.72,13-11.31,20-16.45L75.08,3.3C69.94,10.3,64.35,16.86,58.62,23.29Z"/><path class="cls-1" d="M61.6,58.83a25.28,25.28,0,0,1-1.83,2.05,23.46,23.46,0,0,1-2.06,1.83l.93,1c5.72,6.42,11.31,13,16.44,20l7.54-7.55c-7-5.12-13.58-10.71-20-16.44Z"/><path class="cls-1" d="M57.11,58.23a20.81,20.81,0,1,1,0-29.43A20.83,20.83,0,0,1,57.11,58.23ZM30.76,31.88a16.46,16.46,0,1,0,23.28,0A16.48,16.48,0,0,0,30.76,31.88Z"/><circle cx="42.4" cy="43.52" r="6.06"/></svg>