<svg id="Layer_1" data-name="Layer 1" xmlns="http://www.w3.org/2000/svg" viewBox="0 0 511.26 209.88"><defs><style>.cls-1{fill:#fff;}.cls-2{fill:#b4b3b3;}</style></defs><title>White grey logo</title><path class="cls-1" d="M197.23,57.81a21.22,21.22,0,0,1-4.12.94,33.79,33.79,0,0,1-4.81.38,14.42,14.42,0,0,1-6.4-1.28,10.49,10.49,0,0,1-4.16-3.64,15.89,15.89,0,0,1-2.21-5.64,37.14,37.14,0,0,1-.66-7.3c0-6.47,1.13-11.11,3.39-14s5.61-4.26,10-4.26c.69,0,1.44,0,2.25.1s1.57.15,2.29.24,1.36.2,1.94.31a5.64,5.64,0,0,1,1.28.39,1.26,1.26,0,0,1,.9,1.24v1.94c-1.48-.23-2.88-.43-4.19-.59a33,33,0,0,0-4-.24,11.91,11.91,0,0,0-4.37.73,7,7,0,0,0-3.11,2.39A11.58,11.58,0,0,0,179.44,34a32.49,32.49,0,0,0-.62,7,31.43,31.43,0,0,0,.72,7.44,11.63,11.63,0,0,0,2.05,4.5,6.53,6.53,0,0,0,3.18,2.22,13.64,13.64,0,0,0,4.08.59,24,24,0,0,0,4.47-.38,16.53,16.53,0,0,1,2.8-.38,1,1,0,0,1,.87.34,1.2,1.2,0,0,1,.24.69Z"/><path class="cls-1" d="M225,54.7a13.14,13.14,0,0,1-2,1.62,15.76,15.76,0,0,1-2.6,1.42,18.52,18.52,0,0,1-3,1,13.58,13.58,0,0,1-3.42.42q-5.74,0-8.45-2.91c-1.8-1.94-2.7-4.61-2.7-8q0-5.88,3.36-8.45t9.66-2.56h9.07v-2.7a13.62,13.62,0,0,0-.49-3.88,5,5,0,0,0-1.62-2.52,7.14,7.14,0,0,0-3-1.35,20.81,20.81,0,0,0-4.54-.42,35,35,0,0,0-5.71.42,25.61,25.61,0,0,1-3.43.42c-.74,0-1.1-.4-1.1-1.18V24.37a32,32,0,0,1,5.6-1c1.94-.19,3.74-.28,5.4-.28a19.67,19.67,0,0,1,6.3.86,9.32,9.32,0,0,1,3.92,2.43,8.67,8.67,0,0,1,2,3.67,18.35,18.35,0,0,1,.55,4.67V58.51h-2.56a.92.92,0,0,1-1-1Zm-.13-14.26h-9.21a13.8,13.8,0,0,0-4.5.62,7.1,7.1,0,0,0-2.84,1.7,5.81,5.81,0,0,0-1.45,2.49,10.29,10.29,0,0,0-.42,2.94c0,2.82.71,4.81,2.15,6a8.73,8.73,0,0,0,5.74,1.76,12.12,12.12,0,0,0,6.13-1.48,21.12,21.12,0,0,0,4.4-3.29Z"/><path class="cls-1" d="M241.61,27.49a12.34,12.34,0,0,1,1.8-1.59A13.35,13.35,0,0,1,246,24.41a19,19,0,0,1,3.25-1.11,16.35,16.35,0,0,1,3.95-.45,11.09,11.09,0,0,1,8,2.88q3,2.86,3,9.24V58.5h-2.84a.92.92,0,0,1-1-1V35.11q0-4.78-2.18-6.82a8.07,8.07,0,0,0-5.78-2,13.11,13.11,0,0,0-3.5.44,14.6,14.6,0,0,0-3,1.18,14.38,14.38,0,0,0-2.39,1.59,17.58,17.58,0,0,0-1.73,1.63V58.5h-2.84a.92.92,0,0,1-1-1V23.68h2.56a.92.92,0,0,1,1,1Z"/><path class="cls-1" d="M294.78,57.81a21.4,21.4,0,0,1-4.12.94,33.79,33.79,0,0,1-4.81.38,14.42,14.42,0,0,1-6.4-1.28,10.42,10.42,0,0,1-4.16-3.64,15.71,15.71,0,0,1-2.22-5.64,38,38,0,0,1-.65-7.3c0-6.47,1.13-11.11,3.39-14s5.61-4.26,10-4.26c.69,0,1.44,0,2.25.1s1.57.15,2.28.24,1.37.2,1.94.31a5.33,5.33,0,0,1,1.28.39,1.24,1.24,0,0,1,.9,1.24v1.94c-1.47-.23-2.87-.43-4.19-.59a32.8,32.8,0,0,0-4-.24,11.91,11.91,0,0,0-4.37.73,7,7,0,0,0-3.11,2.39A11.28,11.28,0,0,0,277,34a32.42,32.42,0,0,0-.63,7,31.36,31.36,0,0,0,.73,7.44,11.63,11.63,0,0,0,2,4.5,6.55,6.55,0,0,0,3.19,2.22,13.54,13.54,0,0,0,4.08.59,24,24,0,0,0,4.47-.38,16.41,16.41,0,0,1,2.8-.38,1,1,0,0,1,.87.34,1.2,1.2,0,0,1,.24.69Z"/><path class="cls-1" d="M316,59.13a21.31,21.31,0,0,1-6.71-.94,10.21,10.21,0,0,1-4.67-3,13.53,13.53,0,0,1-2.74-5.54,33.28,33.28,0,0,1-.9-8.34,34.8,34.8,0,0,1,.9-8.55A14.85,14.85,0,0,1,304.57,27a10.21,10.21,0,0,1,4.37-3.18,16.53,16.53,0,0,1,6-1A14.94,14.94,0,0,1,321.19,24,9.2,9.2,0,0,1,325,27.11a12.36,12.36,0,0,1,1.87,4.67,30.51,30.51,0,0,1,.52,5.82c0,.92-.05,1.85-.14,2.77a15.36,15.36,0,0,1-.35,2.21h-22a39,39,0,0,0,.76,6,9.73,9.73,0,0,0,1.84,4.08A7.19,7.19,0,0,0,311,55a18.67,18.67,0,0,0,5.68.73,31.23,31.23,0,0,0,5.43-.38A17.61,17.61,0,0,1,325,55a1,1,0,0,1,.87.34,1.22,1.22,0,0,1,.25.69v1.8a20.61,20.61,0,0,1-4.26.9,57.91,57.91,0,0,1-5.79.42m-1.1-32.89a10.68,10.68,0,0,0-4.82,1,7.73,7.73,0,0,0-3,2.74,11.86,11.86,0,0,0-1.63,4.15,30.75,30.75,0,0,0-.55,5.23h18.62a6.13,6.13,0,0,0,.07-.94v-.86a30.06,30.06,0,0,0-.35-4.92,8.4,8.4,0,0,0-1.31-3.53A6.19,6.19,0,0,0,319.29,27a11.09,11.09,0,0,0-4.36-.73"/><path class="cls-1" d="M350,23.54a3.34,3.34,0,0,1,1.73.28,1,1,0,0,1,.35.83v2.49a8.31,8.31,0,0,0-1-.06h-.87a12,12,0,0,0-5.64,1.28,17.45,17.45,0,0,0-4.88,4V58.51H336.8a.91.91,0,0,1-1-1V23.68h2.56a.92.92,0,0,1,1,1l.13,3.88a16.32,16.32,0,0,1,1.88-1.73,14.9,14.9,0,0,1,2.45-1.63A16.46,16.46,0,0,1,346.74,24a10.88,10.88,0,0,1,3.22-.49"/><path class="cls-1" d="M199.1,123.12a.92.92,0,0,1-1-1l-.14-2.78a18.44,18.44,0,0,1-4.25,3.09,13.77,13.77,0,0,1-6.61,1.42,11.69,11.69,0,0,1-5.89-1.35,10.24,10.24,0,0,1-3.77-3.74,16.3,16.3,0,0,1-2-5.72,44.64,44.64,0,0,1-.55-7.33q0-9.76,3.6-14t10.46-4.22a16.76,16.76,0,0,1,5.57.76c1.41.51,2.5,1,3.29,1.32V73.4h2.83a.92.92,0,0,1,1,1v48.68Zm-1.31-30.33A25.74,25.74,0,0,0,194,91.4a17.47,17.47,0,0,0-4.6-.55,13.2,13.2,0,0,0-4.85.8,7.32,7.32,0,0,0-3.29,2.56,11.9,11.9,0,0,0-1.86,4.57,33.2,33.2,0,0,0-.59,6.82q0,7.41,1.87,11.11c1.24,2.47,3.6,3.7,7.06,3.7a11.64,11.64,0,0,0,3.39-.45,12.56,12.56,0,0,0,2.77-1.14,13.74,13.74,0,0,0,2.22-1.52,19.88,19.88,0,0,0,1.66-1.59Z"/><path class="cls-1" d="M225.2,123.74a21.31,21.31,0,0,1-6.71-.94,10.32,10.32,0,0,1-4.68-3,13.64,13.64,0,0,1-2.73-5.54,33.37,33.37,0,0,1-.9-8.35,34.91,34.91,0,0,1,.9-8.55,14.8,14.8,0,0,1,2.66-5.67,10.18,10.18,0,0,1,4.36-3.18,16.35,16.35,0,0,1,6-1,15,15,0,0,1,6.27,1.14,9.12,9.12,0,0,1,3.81,3.12A12.29,12.29,0,0,1,236,96.39a31.34,31.34,0,0,1,.52,5.82c0,.92-.05,1.84-.14,2.76a15.3,15.3,0,0,1-.35,2.22h-22a38.84,38.84,0,0,0,.77,6,9.85,9.85,0,0,0,1.83,4.08,7.33,7.33,0,0,0,3.5,2.32,18.74,18.74,0,0,0,5.68.72,30.27,30.27,0,0,0,5.43-.38,18.85,18.85,0,0,1,2.87-.38,1,1,0,0,1,.87.35,1.2,1.2,0,0,1,.24.69v1.8a20.61,20.61,0,0,1-4.26.9,57.48,57.48,0,0,1-5.78.42m-1.11-32.89a10.54,10.54,0,0,0-4.81,1,7.78,7.78,0,0,0-3,2.73,11.79,11.79,0,0,0-1.63,4.16,30.71,30.71,0,0,0-.56,5.23h18.63a6.22,6.22,0,0,0,.07-.94v-.86a31.22,31.22,0,0,0-.35-4.92,8.48,8.48,0,0,0-1.31-3.53,6.18,6.18,0,0,0-2.63-2.11,11,11,0,0,0-4.37-.73"/><path class="cls-1" d="M244.1,91.75a.92.92,0,0,1-1-1V88.92c.83-.14,1.77-.28,2.81-.42s2.11-.26,3.22-.35,2.21-.17,3.32-.24,2.12-.11,3.05-.11a27,27,0,0,1,7.17.87,11.81,11.81,0,0,1,5.12,2.87,12.78,12.78,0,0,1,3.08,5.37,28.74,28.74,0,0,1,1,8.34,39.28,39.28,0,0,1-.69,7.86,15.41,15.41,0,0,1-2.28,5.74,10.16,10.16,0,0,1-4.23,3.54,15.8,15.8,0,0,1-6.57,1.21,17.06,17.06,0,0,1-5.61-.76c-1.43-.51-2.54-1-3.32-1.32v13.36h-2.84a.92.92,0,0,1-1-1V91.75Zm13.5,28.46a13.39,13.39,0,0,0,4.57-.7,6.83,6.83,0,0,0,3.22-2.38,11.67,11.67,0,0,0,1.9-4.5,33.24,33.24,0,0,0,.63-7.1,29.81,29.81,0,0,0-.63-6.61,10.36,10.36,0,0,0-2.07-4.47,8.33,8.33,0,0,0-3.88-2.53,19.53,19.53,0,0,0-6-.79c-.79,0-1.76,0-2.91.07s-2.24.11-3.25.2v26.8a28.11,28.11,0,0,0,3.8,1.42,16.65,16.65,0,0,0,4.64.59"/><path class="cls-1" d="M294.5,123.74a21.31,21.31,0,0,1-6.71-.94,10.34,10.34,0,0,1-4.67-3,13.53,13.53,0,0,1-2.74-5.54,33.37,33.37,0,0,1-.9-8.35,34.91,34.91,0,0,1,.9-8.55,14.66,14.66,0,0,1,2.67-5.67,10.13,10.13,0,0,1,4.36-3.18,16.31,16.31,0,0,1,6-1,14.94,14.94,0,0,1,6.26,1.14,9.12,9.12,0,0,1,3.81,3.12,12.29,12.29,0,0,1,1.87,4.67,30.51,30.51,0,0,1,.52,5.82c0,.92-.05,1.84-.14,2.76a15.3,15.3,0,0,1-.35,2.22h-22a39,39,0,0,0,.76,6A9.85,9.85,0,0,0,286,117.3a7.33,7.33,0,0,0,3.5,2.32,18.74,18.74,0,0,0,5.68.72,30.27,30.27,0,0,0,5.43-.38,18.78,18.78,0,0,1,2.88-.38,1,1,0,0,1,.86.35,1.2,1.2,0,0,1,.24.69v1.8a20.34,20.34,0,0,1-4.25.9,57.69,57.69,0,0,1-5.79.42m-1.1-32.89a10.55,10.55,0,0,0-4.82,1,7.78,7.78,0,0,0-3,2.73,12,12,0,0,0-1.63,4.16,29.77,29.77,0,0,0-.55,5.23H302a6.22,6.22,0,0,0,.07-.94v-.86a31.31,31.31,0,0,0-.34-4.92,8.62,8.62,0,0,0-1.32-3.53,6.12,6.12,0,0,0-2.63-2.11,10.91,10.91,0,0,0-4.36-.73"/><path class="cls-1" d="M318,92.1a12.34,12.34,0,0,1,1.8-1.59A13.45,13.45,0,0,1,322.34,89a18.73,18.73,0,0,1,3.25-1.11,16.24,16.24,0,0,1,4-.45,11.12,11.12,0,0,1,8,2.87q3,2.88,3,9.24v23.54H337.7a.91.91,0,0,1-1-1V99.71q0-4.77-2.18-6.82a8.15,8.15,0,0,0-5.78-2,13.05,13.05,0,0,0-3.5.45,14.49,14.49,0,0,0-5.37,2.77,17.58,17.58,0,0,0-1.73,1.63v27.41h-2.84a.91.91,0,0,1-1-1V88.29h2.56a.91.91,0,0,1,1,1Z"/><path class="cls-1" d="M373,123.12a.92.92,0,0,1-1-1l-.13-2.78a18.73,18.73,0,0,1-4.26,3.09,13.77,13.77,0,0,1-6.61,1.42,11.69,11.69,0,0,1-5.89-1.35,10.24,10.24,0,0,1-3.77-3.74,16.29,16.29,0,0,1-2-5.72,43.51,43.51,0,0,1-.56-7.33q0-9.76,3.6-14t10.46-4.22a16.76,16.76,0,0,1,5.57.76c1.41.51,2.5,1,3.29,1.32V73.4h2.84a.92.92,0,0,1,1,1v48.68ZM371.7,92.79a25.74,25.74,0,0,0-3.78-1.39,17.47,17.47,0,0,0-4.6-.55,13.11,13.11,0,0,0-4.84.8,7.27,7.27,0,0,0-3.29,2.56,11.75,11.75,0,0,0-1.87,4.57,33.2,33.2,0,0,0-.59,6.82q0,7.41,1.87,11.11c1.24,2.47,3.6,3.7,7.06,3.7a11.55,11.55,0,0,0,3.39-.45,12.56,12.56,0,0,0,2.77-1.14A13.74,13.74,0,0,0,370,117.3a19.88,19.88,0,0,0,1.66-1.59Z"/><path class="cls-1" d="M399.11,123.74a21.31,21.31,0,0,1-6.71-.94,10.34,10.34,0,0,1-4.67-3,13.53,13.53,0,0,1-2.74-5.54,33.37,33.37,0,0,1-.9-8.35,34.91,34.91,0,0,1,.9-8.55,14.66,14.66,0,0,1,2.67-5.67A10.13,10.13,0,0,1,392,88.47a16.31,16.31,0,0,1,6-1,14.94,14.94,0,0,1,6.26,1.14,9.12,9.12,0,0,1,3.81,3.12A12.29,12.29,0,0,1,410,96.39a31.34,31.34,0,0,1,.52,5.82c0,.92-.05,1.84-.14,2.76a15.3,15.3,0,0,1-.35,2.22H388a39,39,0,0,0,.76,6,9.85,9.85,0,0,0,1.83,4.08,7.28,7.28,0,0,0,3.5,2.32,18.74,18.74,0,0,0,5.68.72,30.27,30.27,0,0,0,5.43-.38,18.78,18.78,0,0,1,2.88-.38,1,1,0,0,1,.86.35,1.2,1.2,0,0,1,.24.69v1.8a20.34,20.34,0,0,1-4.25.9,57.69,57.69,0,0,1-5.79.42M398,90.85a10.55,10.55,0,0,0-4.82,1,7.78,7.78,0,0,0-3,2.73,12,12,0,0,0-1.63,4.16,29.77,29.77,0,0,0-.55,5.23h18.62a7.87,7.87,0,0,0,.07-.94v-.86a32.56,32.56,0,0,0-.34-4.92A8.62,8.62,0,0,0,405,93.69a6.12,6.12,0,0,0-2.63-2.11,10.91,10.91,0,0,0-4.36-.73"/><path class="cls-1" d="M422.58,92.1a12.34,12.34,0,0,1,1.8-1.59A13.45,13.45,0,0,1,427,89a18.73,18.73,0,0,1,3.25-1.11,16.24,16.24,0,0,1,3.95-.45,11.12,11.12,0,0,1,8,2.87q3,2.88,3,9.24v23.54h-2.84a.91.91,0,0,1-1-1V99.71q0-4.77-2.18-6.82a8.15,8.15,0,0,0-5.78-2,13.05,13.05,0,0,0-3.5.45,14.49,14.49,0,0,0-5.37,2.77,17.58,17.58,0,0,0-1.73,1.63v27.41h-2.84a.91.91,0,0,1-1-1V88.29h2.56a.91.91,0,0,1,1,1Z"/><path class="cls-1" d="M475.75,122.42a21.8,21.8,0,0,1-4.12.94,33.79,33.79,0,0,1-4.81.38,14.42,14.42,0,0,1-6.4-1.28,10.49,10.49,0,0,1-4.16-3.64,15.7,15.7,0,0,1-2.21-5.64,37.25,37.25,0,0,1-.66-7.31q0-9.69,3.39-13.94t10-4.26c.7,0,1.45,0,2.25.1s1.57.15,2.29.24,1.36.2,1.94.31a5.48,5.48,0,0,1,1.28.39,1.25,1.25,0,0,1,.89,1.24v1.94c-1.47-.23-2.87-.43-4.18-.59a33,33,0,0,0-4-.24,11.91,11.91,0,0,0-4.37.73,7,7,0,0,0-3.11,2.38A11.7,11.7,0,0,0,458,98.64a32.49,32.49,0,0,0-.62,7,31.43,31.43,0,0,0,.72,7.44,11.63,11.63,0,0,0,2.05,4.5,6.59,6.59,0,0,0,3.18,2.22,13.66,13.66,0,0,0,4.09.58,23.11,23.11,0,0,0,4.46-.38,17.6,17.6,0,0,1,2.81-.38,1,1,0,0,1,.86.35,1.2,1.2,0,0,1,.24.69Z"/><path class="cls-1" d="M496.35,119.1a87.88,87.88,0,0,0,5.49-14.47,125.8,125.8,0,0,0,3.41-16.34H508c.46,0,.74.12.86.35a1,1,0,0,1,.1.69,103.31,103.31,0,0,1-3.71,16.34A107.17,107.17,0,0,1,499,121.32q-1.67,3.32-3.2,5.88a28.34,28.34,0,0,1-3.08,4.33,12.33,12.33,0,0,1-3.34,2.7,8.25,8.25,0,0,1-3.92.93,6.28,6.28,0,0,1-2.5-.41,1.37,1.37,0,0,1-.69-1.25v-1.66c.46,0,.88.07,1.25.07h1.11a6.87,6.87,0,0,0,2.83-.56,7.08,7.08,0,0,0,2.32-1.69,18,18,0,0,0,2.15-2.88q1.08-1.73,2.32-4.08-2.22-3.81-4.26-8.1t-3.74-8.76q-1.69-4.45-2.91-8.93a58.44,58.44,0,0,1-1.69-8.62h3a1,1,0,0,1,.9.31,2,2,0,0,1,.27.73,66.87,66.87,0,0,0,1.63,7.93c.72,2.65,1.55,5.25,2.51,7.78s2,5,3.05,7.38,2.21,4.6,3.37,6.68"/><path class="cls-1" d="M177.43,152.9a.91.91,0,0,1,1,1l.14,2.76a16.46,16.46,0,0,1,1.73-1.59,13.11,13.11,0,0,1,2.42-1.49,18.65,18.65,0,0,1,3.12-1.1,14.8,14.8,0,0,1,3.74-.45,11.62,11.62,0,0,1,5.67,1.28,8.32,8.32,0,0,1,3.61,4.12,13.65,13.65,0,0,1,1.79-1.77,15.87,15.87,0,0,1,2.6-1.73,17.27,17.27,0,0,1,3.43-1.35,15.54,15.54,0,0,1,4.29-.55,10.36,10.36,0,0,1,7.69,2.87q2.84,2.88,2.83,9.24v23.54H218.7a.91.91,0,0,1-1-1V164.32c0-3.18-.69-5.46-2-6.82a7.34,7.34,0,0,0-5.43-2,11.35,11.35,0,0,0-3.5.52,12.24,12.24,0,0,0-2.9,1.32,15.26,15.26,0,0,0-2.29,1.69,16.57,16.57,0,0,0-1.63,1.66c.09.56.17,1.12.21,1.7s.07,1.19.07,1.83v23.54H197.3a.92.92,0,0,1-1-1V164.32c0-3.18-.68-5.46-2-6.82a7.35,7.35,0,0,0-5.44-2,11.69,11.69,0,0,0-3.32.45,13,13,0,0,0-2.8,1.18,12.5,12.5,0,0,0-2.25,1.59,21.63,21.63,0,0,0-1.66,1.63v27.41h-2.84a.92.92,0,0,1-1-1V152.9Z"/><path class="cls-1" d="M251,183.91a13.28,13.28,0,0,1-2,1.63,16.8,16.8,0,0,1-2.59,1.42,19.87,19.87,0,0,1-3.05,1,13.72,13.72,0,0,1-3.43.41q-5.74,0-8.45-2.9t-2.7-8q0-5.88,3.36-8.45t9.66-2.56h9.07v-2.7a13.18,13.18,0,0,0-.49-3.88,5.1,5.1,0,0,0-1.62-2.53,7.21,7.21,0,0,0-3-1.35,21.35,21.35,0,0,0-4.53-.41,36.39,36.39,0,0,0-5.72.41,25.7,25.7,0,0,1-3.42.42c-.74,0-1.11-.39-1.11-1.18v-1.66a32,32,0,0,1,5.61-1c1.94-.18,3.74-.28,5.4-.28a19.64,19.64,0,0,1,6.3.87,9.33,9.33,0,0,1,3.91,2.42,8.56,8.56,0,0,1,2,3.67,18.42,18.42,0,0,1,.56,4.68v23.81h-2.57a.91.91,0,0,1-1-1Zm-.14-14.26h-9.21a13.78,13.78,0,0,0-4.5.63,7.09,7.09,0,0,0-2.84,1.69,5.93,5.93,0,0,0-1.45,2.49,10.36,10.36,0,0,0-.42,2.95c0,2.81.72,4.81,2.15,6a8.76,8.76,0,0,0,5.75,1.77,12,12,0,0,0,6.12-1.49,20.78,20.78,0,0,0,4.4-3.29Z"/><path class="cls-1" d="M263,156.36a.92.92,0,0,1-1-1v-1.8c.83-.14,1.76-.28,2.8-.42s2.11-.25,3.22-.34,2.22-.17,3.32-.24,2.13-.11,3.05-.11a26.43,26.43,0,0,1,7.16.87,11.74,11.74,0,0,1,5.13,2.87,12.57,12.57,0,0,1,3.08,5.37,28.66,28.66,0,0,1,1,8.34,41,41,0,0,1-.69,7.86,15.59,15.59,0,0,1-2.29,5.74,10.1,10.1,0,0,1-4.22,3.53,15.71,15.71,0,0,1-6.58,1.22,17.33,17.33,0,0,1-5.61-.76c-1.43-.51-2.54-.95-3.32-1.32v13.36h-2.84a.92.92,0,0,1-1-1V156.36Zm13.49,28.45a13.61,13.61,0,0,0,4.57-.69,6.87,6.87,0,0,0,3.23-2.39,11.69,11.69,0,0,0,1.9-4.5,33.88,33.88,0,0,0,.62-7.09,30.49,30.49,0,0,0-.62-6.61,10.43,10.43,0,0,0-2.08-4.47,8.33,8.33,0,0,0-3.88-2.53,19.53,19.53,0,0,0-6-.79c-.78,0-1.76,0-2.91.07s-2.24.11-3.25.2v26.8a27.27,27.27,0,0,0,3.81,1.42,16.6,16.6,0,0,0,4.63.58"/><path class="cls-1" d="M107,111.3l-.88,1.16-.29.36q-3.9,5.15-8.09,10.29c-.13.17-.25.31-.37.48l-.82-.14c-18.69-3.38-59.18-8.56-69.8-24.09-.24-.56-1.46-3.81-.8-9.55,1.77,2.09,4.81,4.62,10.16,6.66C47.5,100.82,80.85,106.92,107,111.3"/><path class="cls-1" d="M133.75,115.62c-1.65,4.37-3.5,8.7-5.51,12.95-2.12-.31-8.46-1.36-15-2.4a92.67,92.67,0,0,0,6-8.7l.15-.27c.48-.8,1-1.61,1.41-2.41.19-.36.36-.75.53-1.14,4.81.78,9,1.46,12.32,2"/><path class="cls-1" d="M31.54,49.23a2.26,2.26,0,0,0-.2.26,96.58,96.58,0,0,0-6.19,8.85l-.15.27c-.49.8-.95,1.6-1.39,2.4-.14.25-.24.51-.36.76L12.65,60c.44-1.53.95-3.06,1.51-4.57a68.16,68.16,0,0,1,4-8.43c3.23.58,7.88,1.31,13.42,2.19"/><path class="cls-1" d="M118.56,86c-1.77-2.1-4.83-4.62-10.15-6.66C97,75,63.71,68.71,37.73,64.22c.22-.29.44-.59.66-.85l.29-.39q3.9-5.15,8.1-10.28c.12-.17.26-.34.41-.54l.24-.28c26.93,4.76,61.29,12.44,70.33,24.59.24.53,1.46,3.81.8,9.53"/><path class="cls-2" d="M148.05,75.06c0-.49,0-1,0-1.51l-.17-3c-.1-1-.22-2-.32-3a76.36,76.36,0,0,0-2.45-11.86l-.9-2.89c-.34-.95-.7-1.9-1.05-2.85l-.26-.7-.3-.7-.6-1.39c-.2-.49-.39-.95-.61-1.41l-.65-1.36a73.47,73.47,0,0,0-14.08-19.81,71.45,71.45,0,0,0-9.35-7.92c-.22-.14-.42-.29-.64-.44l-.63-.41L114.72,15c-.85-.59-1.72-1.1-2.62-1.61l-1.31-.8-1.36-.7c-.93-.46-1.8-1-2.75-1.39l-1.41-.65-.68-.32-.36-.17-.34-.12L101,8c-1-.34-1.94-.65-2.92-1-.24-.09-.49-.16-.73-.24l-.73-.21-1.48-.44c-.48-.13-1-.29-1.48-.39l-1.51-.37-1.5-.33L90.3,5l-.39,0-.75-.15-1.51-.26c-.51-.1-1-.2-1.53-.25l-3-.39a76.46,76.46,0,0,0-12.29-.17l-3.07.25-3,.41-.78.12-.75.12-1.51.29c-.51.1-1,.18-1.51.3l-1.5.36-1.49.34-.75.2-.73.21-1.48.44c-.49.15-1,.29-1.46.46l-2.89,1L47,9.32a72.93,72.93,0,0,0-10.84,5.74l-1.26.82c-.44.29-.88.56-1.29.85l-2.48,1.8-2.38,1.92c-.41.32-.78.66-1.17,1l-1.14,1a73,73,0,0,0-15.14,19,75.63,75.63,0,0,0-5,11.1C.67,68.66,1.33,85.82,5.78,102.05c.87,3.16,1.87,6.26,3,9.34a164.34,164.34,0,0,0,9.48,21.39,257.82,257.82,0,0,0,25.47,38.73c1.41,1.8,2.87,3.53,4.3,5.28,3,3.64,6,7.22,9.14,10.72.48.56.95,1.12,1.46,1.67,1.29,1.41,2.57,2.85,3.89,4.26s2.64,2.79,4,4.15c2.67,2.77,5.37,5.5,8.22,8.12l.7.66.63-.66c2.24-2.11,4.38-4.3,6.49-6.49s4.23-4.45,6.29-6.71c4.14-4.5,8.15-9.14,12-13.85a308.26,308.26,0,0,0,21.7-29.75c1.65-2.57,3.25-5.22,4.81-7.87s3-5.37,4.47-8.09a174.26,174.26,0,0,0,7.83-16.85c1.14-2.89,2.18-5.8,3.15-8.77.49-1.48.93-3,1.37-4.49s.82-3,1.19-4.55A96.89,96.89,0,0,0,148,79.58c0-1,.07-2,0-3Zm-8.8,21.87c-2.2,11-6.25,21.53-11,31.64q-4.35,9.23-9.53,18a302.15,302.15,0,0,1-20.41,30c-3.67,4.84-7.49,9.55-11.42,14.2q-3,3.47-6,6.85c-1.8,2-3.64,4-5.51,5.93-5-5.3-9.78-10.86-14.39-16.5-.54-.66-1-1.34-1.58-2,15.77-16.69,45.88-48.85,52.66-57.4.37-.44.78-.92,1.12-1.36a.83.83,0,0,1,.12-.17,92.67,92.67,0,0,0,6-8.7l.15-.27c.48-.8,1-1.61,1.41-2.41.19-.36.36-.75.53-1.14,7.46-15,1.61-30.94-3.69-37.28,0,0,0,.07,0,.1.24.53,1.46,3.81.8,9.53-.7,5.93-3.45,14.43-11.56,25.3l-.88,1.16-.29.36q-3.9,5.15-8.09,10.29l-.42.53c-7.72,9.48-29.72,32.68-46.56,50.28-1.24-1.65-2.48-3.28-3.67-5q-6.66-9.26-12.59-19c-3.93-6.48-7.58-13.12-10.86-19.92-1.65-3.38-3.19-6.83-4.59-10.31s-2.73-7-3.87-10.55C10.1,93.43,7.94,76.24,12.65,60c.44-1.53.95-3.06,1.51-4.57a68.16,68.16,0,0,1,4-8.43c.25-.42.44-.85.68-1.26a64.86,64.86,0,0,1,17-19.18c1.71-1.31,3.5-2.51,5.34-3.65A66.83,66.83,0,0,1,52,17.52a70.69,70.69,0,0,1,10.17-2.83c.22,0,.47-.09.69-.12C50.93,27.09,40.12,38.46,32.44,48.11c-.3.36-.61.75-.9,1.12a2.26,2.26,0,0,0-.2.26,96.58,96.58,0,0,0-6.19,8.85l-.15.27c-.49.8-.95,1.6-1.39,2.4-.14.25-.24.51-.36.76-5.52,10.79-4.74,24.61,1.58,34.92l.66,1c.43.63.85,1.22,1.28,1.73a.12.12,0,0,0,0-.08c-.24-.56-1.46-3.81-.8-9.55.7-5.93,3.42-14.44,11.54-25.25.07-.12.17-.22.24-.34.22-.29.44-.58.66-.85s.2-.27.29-.39q3.9-5.15,8.1-10.28c.12-.17.26-.34.41-.53s.17-.2.24-.3c10.72-13.07,25.76-28,35.39-37.93a69.07,69.07,0,0,1,9.67,1.87c2.56.73,5.07,1.6,7.56,2.55a63.27,63.27,0,0,1,20.19,12.86,69.53,69.53,0,0,1,7.27,7.87,64.89,64.89,0,0,1,5.88,9A61.65,61.65,0,0,1,137.74,58a64.22,64.22,0,0,1,2.62,10.52c1.55,9.44.75,19-1.11,28.38"/></svg>